<svg xmlns="http://www.w3.org/2000/svg" viewBox="0 0 360 96" role="img" aria-label="TRH"><rect width="360" height="96" fill="#07111f"/><g transform="translate(28 24)"><path d="M28 5 52 14v17c0 17-9 28-24 34C13 59 4 48 4 31V14L28 5Z" fill="#fff"/><path d="M28 10 46 17v13c0 12-6 21-18 27C16 51 10 42 10 30V17l18-7Z" fill="#2f6fff"/><path d="M28 16v36M15 28h26M20 40h16" stroke="#fff" stroke-width="4" stroke-linecap="round"/><path d="M18 58h20" stroke="#d8a93a" stroke-width="5" stroke-linecap="round"/></g><text x="108" y="56" font-family="Inter,Arial,sans-serif" font-size="34" font-weight="900" fill="#fff" letter-spacing="1">TRH</text><text x="188" y="57" font-family="Inter,Arial,sans-serif" font-size="8" font-weight="800" fill="#2f6fff" letter-spacing="5">THE RIGHT HAT</text><g fill="#2f6fff"><rect x="254" y="35" width="5" height="5" rx="1" opacity=".3"/><rect x="266" y="35" width="5" height="5" rx="1" opacity=".42"/><rect x="278" y="35" width="5" height="5" rx="1" opacity=".54"/><rect x="290" y="35" width="5" height="5" rx="1" opacity=".66"/><rect x="302" y="35" width="5" height="5" rx="1" opacity=".78"/><rect x="314" y="35" width="5" height="5" rx="1" opacity=".9"/></g></svg>