<svg xmlns="http://www.w3.org/2000/svg" viewBox="0 0 1000 700" role="img" aria-label="TRH cyber shield"><defs><linearGradient id="bg" x1="0" y1="0" x2="1" y2="1"><stop stop-color="#ffffff"/><stop offset="1" stop-color="#eaf3ff"/></linearGradient><radialGradient id="glow" cx="50%" cy="48%" r="58%"><stop stop-color="#2f6fff" stop-opacity=".30"/><stop offset="1" stop-color="#2f6fff" stop-opacity="0"/></radialGradient><pattern id="grid" width="58" height="58" patternUnits="userSpaceOnUse"><path d="M58 0H0v58" fill="none" stroke="#c8d8ee" stroke-width="1" opacity=".75"/></pattern></defs><rect width="1000" height="700" fill="url(#bg)"/><rect width="1000" height="700" fill="url(#grid)"/><circle cx="500" cy="375" r="330" fill="url(#glow)"/><path d="M500 130 715 205v170c0 168-86 270-215 336-129-66-215-168-215-336V205l215-75Z" fill="none" stroke="#2f6fff" stroke-width="18"/><path d="M500 215v395M365 352h270M413 485h174" stroke="#12b8ff" stroke-width="16" stroke-linecap="round"/><path d="M500 280 610 330v150c0 70-42 120-110 157-68-37-110-87-110-157V330l110-50Z" fill="none" stroke="#07111f" stroke-opacity=".72" stroke-width="10"/><g fill="#2f6fff"><circle cx="185" cy="120" r="5" opacity=".30"/><circle cx="815" cy="155" r="5" opacity=".45"/><circle cx="780" cy="510" r="4" opacity=".35"/><circle cx="240" cy="535" r="4" opacity=".35"/></g><text x="60" y="632" font-family="Inter,Arial,sans-serif" font-size="34" font-weight="900" fill="#07111f">TRH Cyber Shield</text></svg>